<?xml version="1.0" encoding="UTF-8" standalone="no"?>
<svg
   width="98"
   height="81"
   viewBox="0 0 98 81"
   fill="none"
   version="1.1"
   id="svg1"
   sodipodi:docname="inpulse_design_logo_isotipo.svg"
   inkscape:version="1.4 (86a8ad7, 2024-10-11)"
   xmlns:inkscape="http://www.inkscape.org/namespaces/inkscape"
   xmlns:sodipodi="http://sodipodi.sourceforge.net/DTD/sodipodi-0.dtd"
   xmlns="http://www.w3.org/2000/svg"
   xmlns:svg="http://www.w3.org/2000/svg">
  <defs
     id="defs1" />
  <sodipodi:namedview
     id="namedview1"
     pagecolor="#ffffff"
     bordercolor="#999999"
     borderopacity="1"
     inkscape:showpageshadow="2"
     inkscape:pageopacity="0"
     inkscape:pagecheckerboard="0"
     inkscape:deskcolor="#d1d1d1"
     inkscape:zoom="10.061728"
     inkscape:cx="48.997546"
     inkscape:cy="40.5"
     inkscape:window-width="1920"
     inkscape:window-height="1017"
     inkscape:window-x="-8"
     inkscape:window-y="-8"
     inkscape:window-maximized="1"
     inkscape:current-layer="svg1" />
  <path
     d="M72.9849 80.3523C70.4749 80.3523 68.2549 79.9623 66.2949 79.1723C64.3449 78.3823 62.8149 77.0423 61.7049 75.1523C60.5949 73.2623 60.0449 70.6823 60.0449 67.4123L60.0449 14.0423C60.0449 10.5923 57.3849 7.59231 53.9449 7.48231C50.3849 7.37231 47.4549 10.2323 47.4549 13.7723L47.4549 60.4123C47.4549 64.3723 46.9049 67.6823 45.7949 70.3323C44.6849 72.9823 43.0949 75.0823 41.0249 76.6223C38.9549 78.1723 36.4649 79.2623 33.5449 79.9023C30.6249 80.5423 27.3649 80.8623 23.7549 80.8623C20.1449 80.8623 16.8749 80.5423 13.9649 79.9023C11.0449 79.2623 8.55494 78.1723 6.49494 76.6223C4.42494 75.0823 2.83494 72.9823 1.72494 70.3323C0.614941 67.6823 0.0649414 64.3723 0.0649414 60.4123L0.0649414 16.0023C3.92494 16.0023 7.05494 19.1323 7.05494 22.9923L7.05494 60.4123C7.05494 64.0823 7.71494 66.9423 9.02494 68.9823C10.3349 71.0223 12.2449 72.4623 14.7549 73.3123C17.2549 74.1623 20.2649 74.5823 23.7549 74.5823C27.2449 74.5823 30.2549 74.1623 32.7649 73.3123C35.2749 72.4723 37.1749 71.0223 38.4949 68.9823C39.8049 66.9423 40.4649 64.0923 40.4649 60.4123L40.4649 13.7823C40.4649 6.44231 46.4149 0.49231 53.7549 0.49231C61.0949 0.49231 67.0449 6.44231 67.0449 13.7823L67.0449 66.4523C67.0449 68.5523 67.3949 70.1423 68.0949 71.2223C68.7949 72.3023 69.7249 73.0323 70.8949 73.4023C72.0649 73.7823 73.2549 73.9723 74.4749 73.9723H91.1949C94.7149 73.9923 97.5549 76.8423 97.5549 80.3523H72.9849Z"
     fill="white"
     id="path1"
     style="fill:#080808;fill-opacity:1" />
</svg>
