<svg width="120" height="120" viewBox="0 0 120 120" fill="none" xmlns="http://www.w3.org/2000/svg">
<path d="M19.5002 50.9652H25.0002C26.0202 50.9652 26.9602 50.5452 27.6302 49.8752C28.2902 49.2152 28.7003 48.3152 28.7303 47.2552V31.1152H12.2402V47.2352C12.2402 48.2552 12.6603 49.1952 13.3303 49.8652C14.0103 50.5452 14.9402 50.9652 15.9702 50.9652H19.5103H19.5002ZM48.7003 27.8552L50.8203 13.0352H39.2102L32.8303 27.8552H48.7003ZM69.1503 13.0352L71.2703 27.8552H87.1403L80.7603 13.0352H69.1503ZM67.9902 27.8552L65.8702 13.0352H54.1202L51.9902 27.8552H67.9902ZM29.2903 27.8552L35.6703 13.0352H26.7303C25.2803 13.0352 23.9103 13.7352 23.0703 14.9152L13.7903 27.8552H29.3003H29.2903ZM84.3102 13.0352L90.6902 27.8552H106.2L96.9202 14.9152C96.0702 13.7352 94.7103 13.0352 93.2603 13.0352H84.3102ZM98.8002 54.2252H94.9703C93.0503 54.2252 91.3102 53.4352 90.0402 52.1652C89.8902 52.0152 89.7502 51.8652 89.6202 51.7052C89.4902 51.8652 89.3503 52.0152 89.2003 52.1652C87.9303 53.4352 86.1803 54.2252 84.2603 54.2252H75.2203C73.3503 54.2252 71.6503 53.4752 70.3903 52.2652L70.2902 52.1752C70.1402 52.0252 70.0002 51.8752 69.8702 51.7152C69.7402 51.8752 69.6003 52.0252 69.4503 52.1752C68.1903 53.4352 66.4403 54.2252 64.5103 54.2252H55.4703C53.5603 54.2252 51.8102 53.4352 50.5402 52.1652C50.3902 52.0152 50.2502 51.8652 50.1202 51.7052C49.9902 51.8652 49.8503 52.0152 49.7003 52.1652C48.4303 53.4352 46.6803 54.2252 44.7703 54.2252H35.7303C33.8603 54.2252 32.1602 53.4752 30.9002 52.2652L30.8003 52.1752C30.6503 52.0252 30.5102 51.8752 30.3802 51.7152C30.2502 51.8752 30.1102 52.0252 29.9602 52.1752C28.6902 53.4452 26.9402 54.2252 25.0302 54.2252H21.2003V100.025C21.2003 101.935 21.9802 103.665 23.2402 104.925C24.5002 106.185 26.2303 106.965 28.1403 106.965C29.9403 106.965 31.3903 105.505 31.3903 103.715V77.6752C31.3903 76.1252 32.6503 74.8652 34.2003 74.8652H50.1702C51.7202 74.8652 52.9802 76.1252 52.9802 77.6752V103.715C52.9802 105.515 54.4402 106.965 56.2302 106.965H91.8802C93.7903 106.965 95.5302 106.185 96.7902 104.925C98.0502 103.665 98.8303 101.925 98.8303 100.015V54.2152L98.8002 54.2252ZM107.75 31.1152H91.2603V47.2952C91.2803 48.3052 91.7002 49.1952 92.3602 49.8552C93.0302 50.5352 93.9602 50.9552 94.9902 50.9552H104.03C105.05 50.9552 105.99 50.5352 106.66 49.8552C107.33 49.1752 107.76 48.2452 107.76 47.2252V31.1052L107.75 31.1152ZM87.9902 31.1152H71.5002V47.2952C71.5202 48.3052 71.9403 49.1952 72.6302 49.8952C73.3302 50.5652 74.2302 50.9552 75.2302 50.9552H84.2703C85.2903 50.9552 86.2303 50.5352 86.9003 49.8652C87.5603 49.2052 87.9702 48.3052 88.0002 47.2452V31.1052L87.9902 31.1152ZM68.2402 31.1152H51.7502V47.2952C51.7702 48.3152 52.1903 49.2052 52.8403 49.8552C53.5203 50.5352 54.4502 50.9552 55.4802 50.9552H64.5203C65.5403 50.9552 66.4803 50.5352 67.1503 49.8552C67.8103 49.1952 68.2202 48.2952 68.2502 47.2452V31.1052L68.2402 31.1152ZM48.4902 31.1152H32.0002V47.2952C32.0202 48.3052 32.4402 49.1952 33.1302 49.8952C33.8302 50.5652 34.7303 50.9552 35.7303 50.9552H44.7703C45.7903 50.9552 46.7302 50.5352 47.4002 49.8652C48.0602 49.2052 48.4702 48.3052 48.5002 47.2452V31.1052L48.4902 31.1152ZM65.9902 64.8152H85.8102C87.3602 64.8152 88.6202 66.0752 88.6202 67.6252V80.7552C88.6202 82.3052 87.3602 83.5652 85.8102 83.5652H65.9902C64.4402 83.5652 63.1802 82.3052 63.1802 80.7552V67.6252C63.1802 66.0752 64.4402 64.8152 65.9902 64.8152Z" fill="#00DBCC"/>
</svg>
