<svg width="120" height="120" viewBox="0 0 120 120" fill="none" xmlns="http://www.w3.org/2000/svg">
<path d="M75.4501 40.0575C75.0315 30.0396 71.2737 22.5239 60.0094 22.5239C48.7451 22.5239 44.978 30.0396 44.5687 40.0575C44.5687 40.0575 44.1129 46.1314 45.8244 52.5774C48.3545 61.4233 54.168 65.795 60.0187 65.7206C65.8601 65.8043 71.6829 61.4233 74.213 52.5774C75.9245 46.1314 75.4687 40.0575 75.4687 40.0575H75.4501Z" fill="#8A94FF"/>
<path d="M64.4092 97.476L62.735 78.8542C62.6326 78.3798 62.2141 78.0356 61.7304 78.0356H58.2702C57.7865 78.0356 57.3679 78.3798 57.2656 78.8542L55.5913 97.476" fill="#8A94FF"/>
<path d="M51.7682 97.4759L53.5448 78.0727C53.6471 77.5984 53.8239 77.1612 54.0471 76.7519C54.0006 76.6496 53.9541 76.5566 53.9169 76.4543L52.0008 71.0965V71.0779C51.545 69.7757 50.3172 68.9013 48.9405 69.0502L37.3693 70.2873C34.4951 70.5942 32.1883 72.7987 31.7418 75.6543L29.3327 94.6017C29.1188 96.1179 30.3001 97.4759 31.8348 97.4759H51.7775H51.7682Z" fill="#8A94FF"/>
<path d="M68.2325 97.4759L66.4559 78.0727C66.3536 77.5984 66.1769 77.1612 65.9536 76.7519C66.0001 76.6496 66.0466 76.5566 66.0838 76.4543L68 71.0965V71.0779C68.4558 69.7757 69.6836 68.9013 71.0602 69.0502L82.6314 70.2873C85.5056 70.5942 87.8124 72.7987 88.2589 75.6543L90.668 94.6017C90.8819 96.1179 89.7006 97.4759 88.1659 97.4759H68.2232H68.2325Z" fill="#8A94FF"/>
<path d="M63.2841 68.2227H56.7171C55.8893 68.2227 55.3126 69.0412 55.5916 69.8225L57.5078 75.1803C57.6752 75.6547 58.131 75.9802 58.6333 75.9802H61.3772C61.8795 75.9802 62.3353 75.664 62.5027 75.1803L64.4189 69.8225C64.6979 69.0412 64.1212 68.2227 63.2934 68.2227H63.2841Z" fill="#8A94FF"/>
<path d="M38.5413 49.7965C38.2251 42.1785 35.3695 36.458 26.7934 36.458C18.2173 36.458 15.3617 42.1692 15.0454 49.7965C15.0454 49.7965 14.7013 54.4194 15.9942 59.3214C17.9196 66.0464 22.3472 69.3764 26.7934 69.3206C31.2396 69.3857 35.6671 66.0558 37.5926 59.3214C38.8948 54.4194 38.5413 49.7965 38.5413 49.7965Z" fill="#8A94FF"/>
<path d="M51.7682 97.4759L53.5448 78.0727C53.6471 77.5984 53.8239 77.1612 54.0471 76.7519C54.0006 76.6496 53.9541 76.5566 53.9169 76.4543L52.0008 71.0965V71.0779C51.545 69.7757 50.3172 68.9013 48.9405 69.0502L37.3693 70.2873C34.4951 70.5942 32.1883 72.7987 31.7418 75.6543L29.3327 94.6017C29.1188 96.1179 30.3001 97.4759 31.8348 97.4759H51.7775H51.7682Z" fill="#8A94FF"/>
<path d="M26.9049 73.1148H26.6631C24.5144 73.1148 22.4866 72.5846 20.6449 71.6079L11.1294 72.7799C8.94347 73.0125 7.18547 74.6867 6.85061 76.8633L5.01819 89.9228C4.86006 91.0762 5.75302 92.1087 6.91572 92.1087H25.5841L27.9746 75.1146C28.0862 74.3705 28.2908 73.6636 28.5513 72.9938C28.0118 73.059 27.463 73.1148 26.9049 73.1148Z" fill="#8A94FF"/>
<path d="M81.4588 49.7965C81.7751 42.1785 84.6307 36.458 93.2067 36.458C101.783 36.458 104.638 42.1692 104.955 49.7965C104.955 49.7965 105.299 54.4194 104.006 59.3214C102.08 66.0464 97.6529 69.3764 93.2067 69.3206C88.7606 69.3857 84.333 66.0558 82.4076 59.3214C81.1053 54.4194 81.4588 49.7965 81.4588 49.7965Z" fill="#8A94FF"/>
<path d="M93.0951 73.1148H93.337C95.4856 73.1148 97.5134 72.5846 99.3551 71.6079L108.871 72.7799C111.057 73.0125 112.815 74.6867 113.149 76.8633L114.982 89.9228C115.14 91.0762 114.247 92.1087 113.084 92.1087H94.4159L92.0254 75.1146C91.9138 74.3705 91.7092 73.6636 91.4487 72.9938C91.9882 73.059 92.537 73.1148 93.0951 73.1148Z" fill="#8A94FF"/>
</svg>
