<svg width="120" height="120" viewBox="0 0 120 120" fill="none" xmlns="http://www.w3.org/2000/svg">
<path d="M53.1025 19.0064C54.3062 19.0064 55.2876 18.0342 55.2876 16.8213V12.1457C55.2413 9.28477 50.9731 9.28477 50.9268 12.1457V16.8306C50.9268 18.0342 51.8989 19.0156 53.1118 19.0156L53.1025 19.0064Z" fill="#EA6CD7"/>
<path d="M44.2969 21.3864C46.3523 23.377 49.3706 20.3587 47.38 18.3033L44.0654 14.9887C42.01 12.9981 38.9917 16.0164 40.9823 18.0718L44.2969 21.3864Z" fill="#EA6CD7"/>
<path d="M36.6955 29.2837H41.3803C44.2413 29.2374 44.2413 24.9691 41.3803 24.9229H36.6955C33.8346 24.9691 33.8346 29.2374 36.6955 29.2837Z" fill="#EA6CD7"/>
<path d="M62.6479 27.0986C62.6479 28.3023 63.6201 29.2837 64.833 29.2837H69.5178C72.3788 29.2374 72.3788 24.9691 69.5178 24.9229H64.833C63.6294 24.9229 62.6479 25.895 62.6479 27.1079V27.0986Z" fill="#EA6CD7"/>
<path d="M60.3602 22.015C60.9158 22.015 61.4713 21.802 61.8972 21.3761L65.2117 18.0615C67.2023 16.0061 64.1841 12.9878 62.1286 14.9784L58.8141 18.293C57.4253 19.5892 58.49 22.0798 60.351 22.015H60.3602Z" fill="#EA6CD7"/>
<path d="M83.8412 98.5472L52.3989 98.4453C50.9453 98.4453 49.7695 99.6119 49.7602 101.066L49.7324 107.26C49.7324 108.713 50.899 109.889 52.3526 109.898L83.7949 110C85.2485 110 86.4243 108.834 86.4336 107.38L86.4613 101.186C86.4613 99.7323 85.2948 98.5564 83.8412 98.5472Z" fill="#EA6CD7"/>
<path d="M84.8594 50.273C83.0355 50.3286 81.5541 51.7081 81.3134 53.4858C81.3134 53.5043 81.3134 53.5228 81.3134 53.5413C81.3041 53.6432 81.2763 53.745 81.2763 53.8469V54.0413V54.1154L81.2671 57.467C81.2671 58.3651 80.5356 59.0965 79.6376 59.0965C78.7395 59.0965 78.008 58.3651 78.008 57.467L77.9525 55.3931L77.971 55.1523V55.0968L77.9803 51.6155C77.9155 49.5694 76.2026 47.9584 74.1565 48.0139C72.2029 48.0695 70.6289 49.6342 70.5549 51.5878V55.3931H70.5456L70.4993 58.8651C70.49 59.7631 69.7494 60.4853 68.8513 60.4761C67.9532 60.4668 67.231 59.7261 67.2403 58.828L67.3421 51.847V51.7915L67.3514 48.3102C67.2866 46.264 65.583 44.653 63.5276 44.7086C61.574 44.7641 60 46.3288 59.926 48.2824L59.8982 58.9576C59.8797 59.8557 59.139 60.5779 58.2409 60.5594C57.3613 60.5409 56.6577 59.8372 56.6392 58.9576L56.6669 31.6261V28.08C56.6206 26.0339 54.9171 24.4136 52.8616 24.4692C50.8988 24.5247 49.3249 26.0894 49.2508 28.0523L49.2045 63.9203C49.2045 65.2998 47.4454 65.8739 46.6306 64.7628C44.353 61.6427 41.3717 57.5781 41.3532 57.5503C39.5385 55.1986 34.4092 51.5322 31.2891 57.9855C31.2891 57.9855 37.4646 64.698 41.9272 73.9844C46.6954 88.4002 48.686 87.465 50.3526 89.8167C51.6395 91.6222 51.9173 94.2702 52.3246 95.4275L82.9614 95.5201C83.1466 94.3905 83.5169 92.3444 83.8502 91.2241C87.7574 78.1416 88.6925 58.9947 88.6925 58.9947V56.4115L88.711 53.8561C88.6462 51.81 86.9333 50.199 84.8872 50.2545L84.8594 50.273Z" fill="#EA6CD7"/>
</svg>
