<svg width="120" height="120" viewBox="0 0 120 120" fill="none" xmlns="http://www.w3.org/2000/svg">
<path d="M44.4376 74.1338L35.4684 88.1376C34.2791 89.9611 31.851 90.4864 30.0077 89.3169L29.9482 89.2773L29.9185 89.2575C28.1643 88.0484 27.6786 85.6599 28.8184 83.8562L30.1067 81.8542C30.1464 81.7947 30.1861 81.7353 30.2257 81.6758L37.7974 69.8524C38.9867 68.0289 41.4247 67.4937 43.2582 68.6631L43.3176 68.7028L43.3474 68.7226C45.1016 69.9317 45.5872 72.3202 44.4474 74.114L44.4376 74.1338Z" fill="#CDFEAC"/>
<path d="M51.633 84.0242L55.0423 78.7121C56.182 76.9084 55.6964 74.5298 53.9422 73.3207L53.9125 73.3009L53.853 73.2613C52.0195 72.0918 49.5815 72.627 48.3922 74.4506L47.3912 76.0164L38.4221 90.0103L37.6392 91.2293C36.4994 93.033 36.9851 95.4116 38.7393 96.6207L38.769 96.6405L38.8285 96.6801C40.6619 97.8496 43.1 97.3144 44.2892 95.4909L46.6876 91.7545L51.6429 84.0242H51.633Z" fill="#CDFEAC"/>
<path d="M33.2287 68.3459C33.0107 67.3647 32.426 66.4926 31.5935 65.9277H31.5637L31.5043 65.8682C29.6708 64.6988 27.2328 65.2339 26.0435 67.0575L20.5728 75.5906C19.4232 77.3943 19.9088 79.7828 21.6729 80.9919L21.7027 81.0117L21.7621 81.0513C23.5659 82.191 25.9444 81.7054 27.1535 79.9512L27.1733 79.9215L27.213 79.862L32.6836 71.329C33.2485 70.4469 33.4468 69.3766 33.2188 68.3459H33.2287Z" fill="#CDFEAC"/>
<path d="M60.1166 84.7675L60.0869 84.7477L60.0274 84.7081C58.1939 83.5386 55.7559 84.0738 54.5667 85.8973L49.6113 93.6376C48.4716 95.4413 48.9572 97.8198 50.7114 99.0289L50.7411 99.0488L50.8006 99.0884C52.6341 100.258 55.0721 99.7227 56.2614 97.8991L61.2167 90.1688C62.3663 88.3651 61.8807 85.9766 60.1166 84.7675Z" fill="#CDFEAC"/>
<path d="M85.2994 33.6583C83.9416 34.1142 82.5145 34.3223 81.0873 34.2728L69.1748 33.9457C66.925 33.8466 64.7348 34.6494 63.0896 36.1756L49.3237 48.4252C49.4922 49.1685 49.8094 49.8622 50.2553 50.4767C52.1185 53.0534 55.7161 53.6283 58.283 51.775C58.3424 51.7353 58.4019 51.6858 58.4514 51.6461C60.6219 49.5847 62.5743 47.8801 64.1897 46.5422C65.7655 45.1844 67.4404 43.9456 69.2045 42.8356C70.0667 42.3995 71.1073 42.7464 71.5434 43.6086C71.6326 43.787 71.6921 43.9753 71.7119 44.1636C71.9101 45.9673 72.5741 47.6819 73.6445 49.1487C74.6058 50.3974 75.9338 51.3092 77.4402 51.7552C77.9952 51.9137 78.5304 52.1119 79.0557 52.3597C79.5809 52.5976 80.0864 52.8751 80.5621 53.1922L98.7283 64.8273L102.058 62.082L87.0536 33.0835L85.2796 33.6682L85.2994 33.6583Z" fill="#CDFEAC"/>
<path d="M98.3321 68.7021L78.6991 56.1255C78.3522 55.8975 77.9855 55.6993 77.6089 55.5209C77.2323 55.3524 76.8458 55.2038 76.4493 55.0849C74.2393 54.4407 72.2869 53.1027 70.8796 51.2792C69.9678 50.08 69.274 48.7321 68.838 47.2951C68.174 47.7906 67.3613 48.4348 66.4099 49.2177C64.8638 50.5061 62.9709 52.1513 60.8103 54.2028C60.8103 54.2028 60.741 54.2623 60.7013 54.3019C56.7272 57.503 50.9096 56.8688 47.7085 52.8847C46.5687 51.4675 45.875 49.743 45.7065 47.9393C45.6372 47.3744 45.8552 46.8194 46.2813 46.4329L52.9611 40.4964L35.1715 33.8364L17.4116 61.5466L21.8615 67.1263L23.1004 65.1838C25.3005 61.7547 29.8495 60.7339 33.3083 62.8845C33.3777 62.9242 33.4471 62.9638 33.5065 63.0134C34.7255 63.836 35.677 64.9955 36.232 66.3533C38.6997 64.2324 42.2675 63.9549 45.0425 65.6793C45.1119 65.719 45.1813 65.7586 45.2407 65.8082C46.7075 66.7893 47.7779 68.266 48.2536 69.9706C48.8482 69.6733 49.4726 69.4454 50.1168 69.3066C52.0196 68.8904 54.0017 69.2273 55.6469 70.2581C55.7163 70.2977 55.7856 70.3373 55.8451 70.3869C59.1949 72.6465 60.1364 77.1658 57.966 80.5651V80.5849C59.3238 80.5849 60.6716 80.9814 61.8311 81.7148C61.9005 81.7544 61.9699 81.794 62.0294 81.8436C65.3792 84.1032 66.3207 88.6225 64.1502 92.0317L61.9104 95.5302L67.1333 98.8899C68.947 100.03 71.3454 99.544 72.5545 97.77V97.7502H72.5644L72.604 97.6907C73.7536 95.8672 73.2581 93.4787 71.494 92.2597L71.4643 92.2399L71.4048 92.2002L67.5496 89.7325C66.7369 89.2171 66.4991 88.1369 67.0144 87.3242C67.5298 86.5115 68.61 86.2737 69.4227 86.789L73.2185 89.2171C73.2779 89.2568 73.3374 89.2964 73.3969 89.336L75.1709 90.4758L75.2204 90.5055L75.2799 90.5451C77.0935 91.6948 79.4919 91.2092 80.7109 89.4352L80.7308 89.4054L80.7704 89.346C81.3353 88.4639 81.5236 87.3936 81.2957 86.3728C81.0677 85.3321 80.4433 84.4303 79.5613 83.8456L72.4851 79.2173C71.6823 78.692 71.4544 77.6118 71.9796 76.7991C72.5049 75.9864 73.5852 75.7684 74.3978 76.2936L81.474 80.9318L81.5236 80.9615L84.6554 82.9734C86.5384 84.0933 88.9764 83.4789 90.1062 81.5958C91.1766 79.802 90.6711 77.4829 88.9566 76.2936L78.5009 69.594C77.6981 69.0589 77.4801 67.9786 78.0053 67.1758C78.5207 66.3929 79.5712 66.155 80.374 66.6506L90.8198 73.3502L94.0209 75.4017C95.904 76.5315 98.342 75.917 99.4718 74.034C100.552 72.2303 100.047 69.9112 98.3221 68.712L98.3321 68.7021Z" fill="#CDFEAC"/>
<path d="M98.0852 21.9054L90.4355 25.8622C89.0548 26.5763 88.5145 28.2746 89.2287 29.6553L106.057 62.1904C106.771 63.5711 108.47 64.1115 109.85 63.3973L117.5 59.4406C118.881 58.7264 119.421 57.0282 118.707 55.6475L101.878 23.1123C101.164 21.7316 99.4659 21.1913 98.0852 21.9054Z" fill="#CDFEAC"/>
<path d="M32.4254 26.4581L25.1748 21.8104C23.8661 20.9716 22.1251 21.3524 21.2863 22.6611L1.51891 53.4992C0.680039 54.8079 1.06092 56.5489 2.36962 57.3878L9.62023 62.0354C10.9289 62.8743 12.6699 62.4935 13.5088 61.1848L33.2761 30.3466C34.115 29.0379 33.7341 27.297 32.4254 26.4581Z" fill="#CDFEAC"/>
</svg>
